<svg width="25" height="25" viewBox="0 0 25 25" fill="none" xmlns="http://www.w3.org/2000/svg">
<g id="icon / jam-icons / outline &#38; logos / arrow-right">
<path id="Vector" d="M16.2525 11.1569L12.3025 7.20692C12.1203 7.01832 12.0196 6.76571 12.0218 6.50352C12.0241 6.24132 12.1293 5.99051 12.3147 5.8051C12.5001 5.61969 12.7509 5.51452 13.0131 5.51224C13.2753 5.50997 13.5279 5.61076 13.7165 5.79292L19.3735 11.4499C19.4667 11.5426 19.5406 11.6527 19.5911 11.7741C19.6416 11.8954 19.6675 12.0255 19.6675 12.1569C19.6675 12.2883 19.6416 12.4184 19.5911 12.5398C19.5406 12.6611 19.4667 12.7713 19.3735 12.8639L13.7165 18.5209C13.6243 18.6164 13.5139 18.6926 13.3919 18.745C13.2699 18.7974 13.1387 18.825 13.0059 18.8262C12.8731 18.8273 12.7414 18.802 12.6185 18.7517C12.4957 18.7015 12.384 18.6272 12.2901 18.5333C12.1962 18.4394 12.122 18.3278 12.0717 18.2049C12.0214 18.082 11.9961 17.9503 11.9973 17.8175C11.9984 17.6847 12.026 17.5535 12.0784 17.4315C12.1308 17.3095 12.207 17.1992 12.3025 17.1069L16.2525 13.1569H6.6665C6.40129 13.1569 6.14693 13.0516 5.9594 12.864C5.77186 12.6765 5.6665 12.4221 5.6665 12.1569C5.6665 11.8917 5.77186 11.6373 5.9594 11.4498C6.14693 11.2623 6.40129 11.1569 6.6665 11.1569H16.2525Z" fill="#E2E8F0"/>
</g>
</svg>
