<svg width="24" height="25" viewBox="0 0 24 25" fill="none" xmlns="http://www.w3.org/2000/svg">
<g id="icon / jam-icons / outline &#38; logos / check">
<path id="Vector" d="M10.486 16.7461C10.3547 16.7464 10.2247 16.7207 10.1034 16.6706C9.98204 16.6205 9.87181 16.5469 9.77899 16.4541L5.53699 12.2111C5.44141 12.1189 5.36516 12.0087 5.31266 11.8867C5.26017 11.7647 5.23249 11.6335 5.23125 11.5007C5.23 11.368 5.25521 11.2363 5.3054 11.1133C5.3556 10.9904 5.42977 10.8787 5.52359 10.7848C5.61742 10.6908 5.72902 10.6165 5.85188 10.5661C5.97474 10.5157 6.1064 10.4903 6.23918 10.4914C6.37196 10.4925 6.50319 10.5199 6.62523 10.5723C6.74727 10.6246 6.85767 10.7007 6.94999 10.7961L10.485 14.3311L16.85 7.96813C17.0375 7.78049 17.2919 7.67502 17.5571 7.67493C17.8224 7.67483 18.0768 7.78012 18.2645 7.96763C18.4521 8.15514 18.5576 8.40951 18.5577 8.67478C18.5578 8.94005 18.4525 9.19449 18.265 9.38213L11.193 16.4541C11.1002 16.5469 10.9899 16.6205 10.8686 16.6706C10.7473 16.7207 10.6173 16.7464 10.486 16.7461Z" fill="#0F172A"/>
</g>
</svg>
