<svg width="24" height="25" viewBox="0 0 24 25" fill="none" xmlns="http://www.w3.org/2000/svg">
<g id="icon / jam-icons / outline &#38; logos / chevron-right">
<path id="Vector" d="M13.314 12.1033L8.36396 7.15333C8.18181 6.96473 8.08101 6.71213 8.08329 6.44993C8.08557 6.18773 8.19074 5.93692 8.37615 5.75151C8.56155 5.5661 8.81237 5.46093 9.07456 5.45866C9.33676 5.45638 9.58936 5.55717 9.77796 5.73933L15.435 11.3963C15.6224 11.5839 15.7278 11.8382 15.7278 12.1033C15.7278 12.3685 15.6224 12.6228 15.435 12.8103L9.77796 18.4673C9.58936 18.6495 9.33676 18.7503 9.07456 18.748C8.81237 18.7457 8.56155 18.6406 8.37615 18.4551C8.19074 18.2697 8.08557 18.0189 8.08329 17.7567C8.08101 17.4945 8.18181 17.2419 8.36396 17.0533L13.314 12.1033Z" fill="#475569"/>
</g>
</svg>
