<svg width="24" height="25" viewBox="0 0 24 25" fill="none" xmlns="http://www.w3.org/2000/svg">
<g id="icon / jam-icons / outline &#38; logos / chevron-left">
<path id="Vector" d="M10.757 12.0323L15.707 16.9823C15.8026 17.0746 15.8787 17.1849 15.9311 17.3069C15.9836 17.4289 16.0111 17.5602 16.0123 17.6929C16.0135 17.8257 15.9882 17.9574 15.9379 18.0803C15.8876 18.2032 15.8133 18.3148 15.7194 18.4087C15.6256 18.5026 15.5139 18.5769 15.391 18.6272C15.2681 18.6774 15.1364 18.7028 15.0036 18.7016C14.8709 18.7004 14.7396 18.6729 14.6176 18.6204C14.4956 18.568 14.3853 18.4919 14.293 18.3963L8.63605 12.7393C8.44858 12.5518 8.34326 12.2975 8.34326 12.0323C8.34326 11.7672 8.44858 11.5129 8.63605 11.3253L14.293 5.66835C14.4817 5.48619 14.7343 5.38539 14.9964 5.38767C15.2586 5.38995 15.5095 5.49512 15.6949 5.68053C15.8803 5.86594 15.9854 6.11675 15.9877 6.37894C15.99 6.64114 15.8892 6.89374 15.707 7.08235L10.757 12.0323Z" fill="#94A3B8"/>
</g>
</svg>
