<svg width="65" height="65" viewBox="0 0 65 65" fill="none" xmlns="http://www.w3.org/2000/svg">
<g id="icon / ionicons / sharp / heart-circle-sharp">
<path id="Vector" d="M32.6667 6.5C18.3305 6.5 6.66675 18.1637 6.66675 32.5C6.66675 46.8363 18.3305 58.5 32.6667 58.5C47.003 58.5 58.6667 46.8363 58.6667 32.5C58.6667 18.1637 47.003 6.5 32.6667 6.5ZM42.003 38.1025C40.9405 39.3975 37.0417 42.9125 32.6667 46.0413C28.2917 42.9163 24.393 39.3975 23.3305 38.1025C20.8305 35.0563 19.633 31.9275 19.668 28.54C19.7067 24.6575 22.8205 21.4988 26.6092 21.4988C29.3592 21.4988 31.2717 23.05 32.383 24.3438L32.6667 24.6875L32.9505 24.3438C34.0417 23.0363 35.9692 21.5 38.7243 21.5C42.513 21.5 45.6267 24.6588 45.6655 28.5413C45.7005 31.9275 44.5018 35.0563 42.003 38.1025Z" fill="#FACC15"/>
<path id="heart-hidden" d="M43.1627 39.0538L43.1626 39.054C41.9742 40.5024 37.9482 44.1084 33.5393 47.2614L32.6673 47.885L31.7949 47.2619C27.3848 44.1118 23.3591 40.5022 22.1708 39.054C19.4857 35.7821 18.129 32.3205 18.1681 28.5251L43.1627 39.0538ZM43.1627 39.0538C45.8462 35.7824 47.2045 32.3209 47.1654 28.5263M43.1627 39.0538L47.1654 28.5263M32.66 22.4707C34.0013 21.2139 36.0239 20 38.7242 20C43.3695 20 47.1188 23.8557 47.1654 28.5263M32.66 22.4707L47.1654 28.5263M32.66 22.4707C31.3225 21.2286 29.3122 19.9988 26.6092 19.9988C21.9641 19.9988 18.215 23.8541 18.1681 28.5245L32.66 22.4707Z" fill="#FB923C" stroke="#0F172A" stroke-width="3"/>
</g>
</svg>
